<mxfile host="65bd71144e">
    <diagram id="ZKfxVyYQvxeKKPxxmpo3" name="Page-1">
        <mxGraphModel dx="720" dy="594" grid="1" gridSize="10" guides="1" tooltips="1" connect="1" arrows="1" fold="1" page="1" pageScale="1" pageWidth="850" pageHeight="1100" math="0" shadow="0">
            <root>
                <mxCell id="0"/>
                <mxCell id="1" parent="0"/>
                <mxCell id="3" style="edgeStyle=none;html=1;entryX=0.5;entryY=0;entryDx=0;entryDy=0;exitX=0;exitY=0.5;exitDx=0;exitDy=0;" edge="1" parent="1" source="2" target="4">
                    <mxGeometry relative="1" as="geometry">
                        <mxPoint x="140" y="165" as="targetPoint"/>
                        <Array as="points">
                            <mxPoint x="185" y="135"/>
                        </Array>
                    </mxGeometry>
                </mxCell>
                <mxCell id="6" value="" style="edgeStyle=none;html=1;" edge="1" parent="1" source="2" target="5">
                    <mxGeometry relative="1" as="geometry"/>
                </mxCell>
                <mxCell id="8" style="edgeStyle=none;html=1;entryX=0.5;entryY=0;entryDx=0;entryDy=0;exitX=1;exitY=0.5;exitDx=0;exitDy=0;" edge="1" parent="1" source="2" target="7">
                    <mxGeometry relative="1" as="geometry">
                        <mxPoint x="650" y="270" as="targetPoint"/>
                        <Array as="points">
                            <mxPoint x="645" y="135"/>
                        </Array>
                    </mxGeometry>
                </mxCell>
                <mxCell id="2" value="Main Page&lt;br&gt;&lt;br&gt;1. Navbar with all routes pages links&lt;br&gt;2. Apresentation with logo and slogan&lt;br&gt;3. show value&lt;br&gt;4. footer with contact and map" style="rounded=1;whiteSpace=wrap;html=1;" vertex="1" parent="1">
                    <mxGeometry x="310" y="50" width="210" height="170" as="geometry"/>
                </mxCell>
                <mxCell id="4" value="Products Page&lt;br&gt;&lt;br&gt;1. Navbar component&lt;br&gt;2. Show all products and services that the company do.&lt;br&gt;3. footer component" style="rounded=1;whiteSpace=wrap;html=1;" vertex="1" parent="1">
                    <mxGeometry x="80" y="280" width="210" height="170" as="geometry"/>
                </mxCell>
                <mxCell id="5" value="Constructions Page&lt;br&gt;&lt;br&gt;1. Navbar component&lt;br&gt;2. Show examples of jobs&lt;br&gt;3. show feedbacks with google API&lt;br&gt;4. footer component" style="rounded=1;whiteSpace=wrap;html=1;" vertex="1" parent="1">
                    <mxGeometry x="310" y="280" width="210" height="170" as="geometry"/>
                </mxCell>
                <mxCell id="7" value="Contact Page&lt;br&gt;&lt;br&gt;1. navbar component&lt;br&gt;2. Put an e-mail with resend API&lt;br&gt;3. put all social medias with buttons&lt;br&gt;4. make all with a blur background with an construction in background of page&lt;br&gt;5. footer component" style="rounded=1;whiteSpace=wrap;html=1;" vertex="1" parent="1">
                    <mxGeometry x="540" y="280" width="210" height="170" as="geometry"/>
                </mxCell>
            </root>
        </mxGraphModel>
    </diagram>
</mxfile>